<mxfile host="Electron" modified="2023-04-13T23:46:27.848Z" agent="Mozilla/5.0 (Windows NT 10.0; Win64; x64) AppleWebKit/537.36 (KHTML, like Gecko) draw.io/21.1.2 Chrome/106.0.5249.199 Electron/21.4.3 Safari/537.36" etag="GOCh556r0OIsBFBqbTUG" version="21.1.2" type="device">
  <diagram name="Página-1" id="C63s7ZLfKuJjVxDY76Wc">
    <mxGraphModel dx="2868" dy="2718" grid="1" gridSize="10" guides="1" tooltips="1" connect="1" arrows="1" fold="1" page="0" pageScale="1" pageWidth="827" pageHeight="1169" math="0" shadow="0">
      <root>
        <mxCell id="0" />
        <mxCell id="1" parent="0" />
        <mxCell id="zr6JSHlsfRBPdPK-UqJL-7" value="Agência" style="whiteSpace=wrap;html=1;align=center;" parent="1" vertex="1">
          <mxGeometry x="-380" y="-1300" width="100" height="40" as="geometry" />
        </mxCell>
        <mxCell id="zr6JSHlsfRBPdPK-UqJL-8" value="Funcionário" style="shape=ext;margin=3;double=1;whiteSpace=wrap;html=1;align=center;" parent="1" vertex="1">
          <mxGeometry x="-580" y="-1170" width="100" height="40" as="geometry" />
        </mxCell>
        <mxCell id="zr6JSHlsfRBPdPK-UqJL-10" value="Cliente" style="whiteSpace=wrap;html=1;align=center;" parent="1" vertex="1">
          <mxGeometry x="-380" y="-1080" width="100" height="40" as="geometry" />
        </mxCell>
        <mxCell id="zr6JSHlsfRBPdPK-UqJL-11" value="Conta" style="shape=ext;margin=3;double=1;whiteSpace=wrap;html=1;align=center;" parent="1" vertex="1">
          <mxGeometry x="-210" y="-950" width="100" height="40" as="geometry" />
        </mxCell>
        <mxCell id="zr6JSHlsfRBPdPK-UqJL-12" value="possui" style="shape=rhombus;perimeter=rhombusPerimeter;whiteSpace=wrap;html=1;align=center;" parent="1" vertex="1">
          <mxGeometry x="-390" y="-1200" width="120" height="60" as="geometry" />
        </mxCell>
        <mxCell id="zr6JSHlsfRBPdPK-UqJL-13" value="Contrata" style="shape=rhombus;perimeter=rhombusPerimeter;whiteSpace=wrap;html=1;align=center;" parent="1" vertex="1">
          <mxGeometry x="-590" y="-1310" width="120" height="60" as="geometry" />
        </mxCell>
        <mxCell id="zr6JSHlsfRBPdPK-UqJL-15" style="edgeStyle=orthogonalEdgeStyle;rounded=0;orthogonalLoop=1;jettySize=auto;html=1;exitX=0.5;exitY=1;exitDx=0;exitDy=0;" parent="1" source="zr6JSHlsfRBPdPK-UqJL-11" target="zr6JSHlsfRBPdPK-UqJL-11" edge="1">
          <mxGeometry relative="1" as="geometry" />
        </mxCell>
        <mxCell id="zr6JSHlsfRBPdPK-UqJL-17" value="possui" style="shape=rhombus;perimeter=rhombusPerimeter;whiteSpace=wrap;html=1;align=center;" parent="1" vertex="1">
          <mxGeometry x="-220" y="-1090" width="120" height="60" as="geometry" />
        </mxCell>
        <mxCell id="7SeTo_BBmuGZcVuFy4b5-1" value="Projeto" style="shape=ext;margin=3;double=1;whiteSpace=wrap;html=1;align=center;" vertex="1" parent="1">
          <mxGeometry x="710" y="-1260" width="100" height="40" as="geometry" />
        </mxCell>
        <mxCell id="7SeTo_BBmuGZcVuFy4b5-2" value="Departamento" style="whiteSpace=wrap;html=1;align=center;" vertex="1" parent="1">
          <mxGeometry x="430" y="-1390" width="100" height="40" as="geometry" />
        </mxCell>
        <mxCell id="7SeTo_BBmuGZcVuFy4b5-6" value="Companhia" style="whiteSpace=wrap;html=1;align=center;" vertex="1" parent="1">
          <mxGeometry x="110" y="-1390" width="100" height="40" as="geometry" />
        </mxCell>
        <mxCell id="7SeTo_BBmuGZcVuFy4b5-8" value="Pesquisador" style="shape=ext;margin=3;double=1;whiteSpace=wrap;html=1;align=center;" vertex="1" parent="1">
          <mxGeometry x="590" y="-1140" width="100" height="40" as="geometry" />
        </mxCell>
        <mxCell id="7SeTo_BBmuGZcVuFy4b5-9" value="Limpeza" style="shape=ext;margin=3;double=1;whiteSpace=wrap;html=1;align=center;" vertex="1" parent="1">
          <mxGeometry x="430" y="-1140" width="100" height="40" as="geometry" />
        </mxCell>
        <mxCell id="7SeTo_BBmuGZcVuFy4b5-10" value="Secretario" style="shape=ext;margin=3;double=1;whiteSpace=wrap;html=1;align=center;" vertex="1" parent="1">
          <mxGeometry x="270" y="-1140" width="100" height="40" as="geometry" />
        </mxCell>
        <mxCell id="7SeTo_BBmuGZcVuFy4b5-12" value="Relationship" style="shape=rhombus;perimeter=rhombusPerimeter;whiteSpace=wrap;html=1;align=center;" vertex="1" parent="1">
          <mxGeometry x="590" y="-1400" width="120" height="60" as="geometry" />
        </mxCell>
        <mxCell id="7SeTo_BBmuGZcVuFy4b5-13" value="Relationship" style="shape=rhombus;perimeter=rhombusPerimeter;whiteSpace=wrap;html=1;align=center;" vertex="1" parent="1">
          <mxGeometry x="260" y="-1400" width="120" height="60" as="geometry" />
        </mxCell>
        <mxCell id="7SeTo_BBmuGZcVuFy4b5-15" value="Relationship" style="shape=rhombus;perimeter=rhombusPerimeter;whiteSpace=wrap;html=1;align=center;" vertex="1" parent="1">
          <mxGeometry x="420" y="-1270" width="120" height="60" as="geometry" />
        </mxCell>
        <mxCell id="7SeTo_BBmuGZcVuFy4b5-17" value="" style="endArrow=none;html=1;rounded=0;exitX=1;exitY=0.5;exitDx=0;exitDy=0;entryX=0;entryY=0.5;entryDx=0;entryDy=0;" edge="1" parent="1" source="7SeTo_BBmuGZcVuFy4b5-6" target="7SeTo_BBmuGZcVuFy4b5-13">
          <mxGeometry relative="1" as="geometry">
            <mxPoint x="290" y="-1250" as="sourcePoint" />
            <mxPoint x="450" y="-1250" as="targetPoint" />
          </mxGeometry>
        </mxCell>
        <mxCell id="7SeTo_BBmuGZcVuFy4b5-18" value="" style="endArrow=none;html=1;rounded=0;exitX=1;exitY=0.5;exitDx=0;exitDy=0;entryX=0;entryY=0.5;entryDx=0;entryDy=0;" edge="1" parent="1" source="7SeTo_BBmuGZcVuFy4b5-13" target="7SeTo_BBmuGZcVuFy4b5-2">
          <mxGeometry relative="1" as="geometry">
            <mxPoint x="220" y="-1360" as="sourcePoint" />
            <mxPoint x="270" y="-1360" as="targetPoint" />
          </mxGeometry>
        </mxCell>
        <mxCell id="7SeTo_BBmuGZcVuFy4b5-19" value="" style="endArrow=none;html=1;rounded=0;exitX=0;exitY=0.5;exitDx=0;exitDy=0;entryX=1;entryY=0.5;entryDx=0;entryDy=0;" edge="1" parent="1" source="7SeTo_BBmuGZcVuFy4b5-12" target="7SeTo_BBmuGZcVuFy4b5-2">
          <mxGeometry relative="1" as="geometry">
            <mxPoint x="230" y="-1350" as="sourcePoint" />
            <mxPoint x="280" y="-1350" as="targetPoint" />
          </mxGeometry>
        </mxCell>
        <mxCell id="7SeTo_BBmuGZcVuFy4b5-20" value="" style="endArrow=none;html=1;rounded=0;exitX=0;exitY=0.5;exitDx=0;exitDy=0;entryX=1;entryY=0.5;entryDx=0;entryDy=0;" edge="1" parent="1" source="7SeTo_BBmuGZcVuFy4b5-1" target="7SeTo_BBmuGZcVuFy4b5-12">
          <mxGeometry relative="1" as="geometry">
            <mxPoint x="240" y="-1340" as="sourcePoint" />
            <mxPoint x="290" y="-1340" as="targetPoint" />
          </mxGeometry>
        </mxCell>
        <mxCell id="7SeTo_BBmuGZcVuFy4b5-27" value="Dependente" style="whiteSpace=wrap;html=1;align=center;" vertex="1" parent="1">
          <mxGeometry x="430" y="-960" width="100" height="40" as="geometry" />
        </mxCell>
        <mxCell id="7SeTo_BBmuGZcVuFy4b5-28" value="Relationship" style="shape=rhombus;perimeter=rhombusPerimeter;whiteSpace=wrap;html=1;align=center;" vertex="1" parent="1">
          <mxGeometry x="420" y="-1060" width="120" height="60" as="geometry" />
        </mxCell>
      </root>
    </mxGraphModel>
  </diagram>
</mxfile>
